# xmcd
#
# Track frame offsets:
#	150
#	6656
#	24090
#	43023
#	61662
#	78231
#	79214
#	98785
#	116846
#	119682
#	139506
#	155417
#	173518
#	189360
#	191606
#	209207
#	225329
#	226699
#
# Disc length: 3980 seconds
#
# Revision: 0
# Processed by: cddbd v1.5.1PL2 Copyright (c) Steve Scherf et al.
# Submitted via: EasyCDDAExtractor 4.6.9.1
#
DISCID=e10f8a12
DTITLE=Мастер ШеFF - Грация
DYEAR=2005
DGENRE=Rap
TTITLE0=2 $
TTITLE1=Грация
TTITLE2=Тачки Красотки
TTITLE3=Красотка Парижанка
TTITLE4=Мой голос - классика
TTITLE5=Хип Хоп нация
TTITLE6=Рэп эмблема
TTITLE7=Вера, Надежда, Любовь
TTITLE8=Старик
TTITLE9=Оракул
TTITLE10=Я сильнее этого
TTITLE11=Мастерская рэп музыки
TTITLE12=Хочешь знать?!
TTITLE13=Africa Bambaataa
TTITLE14=Свобода
TTITLE15=Путь каравана
TTITLE16=Рассвет
TTITLE17=Bonus
EXTD=
EXTT0=
EXTT1=
EXTT2=
EXTT3=
EXTT4=
EXTT5=
EXTT6=
EXTT7=
EXTT8=
EXTT9=
EXTT10=
EXTT11=
EXTT12=
EXTT13=
EXTT14=
EXTT15=
EXTT16=
EXTT17=
PLAYORDER=
